/* XPM */
static char *_f7ac6559c174d7ccdcd545882aa360ecb5tzbiW0i992SiX[] = {
/* columns rows colors chars-per-pixel */
"128 128 18 1 ",
"  c None",
". c #17111A",
"X c #372538",
"o c #7A213A",
"O c #753939",
"+ c #3E375C",
"@ c #243B61",
"# c #66A342",
"$ c #83E04C",
"% c #C2E162",
"& c #DCFF70",
"* c #3898FF",
"= c #6EEEFF",
"- c #F9B7CD",
"; c #F1DFD0",
": c #F1FFC6",
"> c #FFFDE7",
", c white",
/* pixels */
"                                                                                                                                ",
"                                                                                                                                ",
"                                                                                                                                ",
"                                                                                                                                ",
"                                                                                                                                ",
"                                                                                                                                ",
"                                                                                                                                ",
"                                                                                                                                ",
"                                                                                                                                ",
"                                                                                                                                ",
"                                                                                                                                ",
"                                                                                                                                ",
"                                                     $$$$$$$$$$$$$$$$                                                           ",
"                                                   $$&&&&&&&&&&&&&&&$$$                                                         ",
"                                                 $$&&&&&&&&&&&&&&&&&&&$$$                                                       ",
"                                               $$&&&&&&&&&&&&&&&&&&&&&&&&$$                                                     ",
"                                              $&&&&&&&&&&&&&%%%&&&&&&&&&&&&$$                                                   ",
"                                             $&&&&&&&&&&&&##%%%&##&&&&&&&&&&&$                                                  ",
"                                            $&&&&&&&&&&&&&###%$###&&&&&&&&&&&&$                                                 ",
"                                           $&&&&&&&&&&&&&&&##$##&&&&&&&&&&&&&&$$                                                ",
"                                          $&&&&&&&&&&&&&&&###$###&&&&&&&&&&&&&&&$                                               ",
"                                         $&&&&&&&&&&&&&&&&&##$##&&&&&&&&&&&&&&&&$$                                              ",
"                                        $&&&&&&&&&&&&&&&&&###$###&&&&:::::::&&:&&$$                                             ",
"                                        $&&&&&&&&&&&&&&&&&##$&$#&&&&&::::::&&&&&&$$                                             ",
"                                       $&&&&:::::&&&:&&&&&##$&$##&&&&&&&&&&&&&&&&&$$                                            ",
"                                      $&&&:::::::&&&&&&&&&&$;;&$$$&&&&&&&&&&&&&&&&&$                                            ",
"                                     $&&&&&&&&&&&&&&&&&&&$$;;;;;;$$$$$$$&&&&&&&&&&&$$                                           ",
"                                     $&&&&&&&&&&&&&&&$$$$;;;;;;;;;;;;;;$$$$$&&&&&&&$$                                           ",
"                                    $&&&&&&&&&&&$$$$$;;;;;;;;;;;;;;;;;;;;,;$$&&&&&&&$                                           ",
"                                    $&&&&&&&&$$$%%%%%%%%%;;;;;;;;%%%%%%%%%%%&$&&&&&&$$                                          ",
"                                    $&&&&&&&&$;%%%%%%%%%%;;;;;;;;%%%%%%%%%%%%&$&&&&&$$                                          ",
"                                   $&&&&$&&$$%%%,,;;;;;;;;;;;;;;;;;;;;;,,,,;%&$$&&&&$$                                          ",
"                                   $&&&$&&&$,,;;,,,,,;;;;;;;;;;;;;;;;,,,$,,,,,&$&&&&&$                                          ",
"                                   $&&&$&&$,,,,,,$$$,,,;;;;;;;;;;;,,,,$$$$$,,,&$&&&&&$                                          ",
"                                   $&&&$&&$,,,,,>>$$$>,,;;;;;;;;;,,$$,$$$>>$,;;&$&&&&$                                          ",
"                                   $&&&$&&$;;;$,>>$$$>>>,;;;;;;;;,$>>>$$$>>,,;;&$&&&$$                                          ",
"                                   $&&&$&&$;;,,,>>$$$>>>,,;;;;;;,$>>>>$$$>>,,;;&$&&&&$$                                         ",
"                                   $&&&$&&$;;,,,>>$$>>>>>,,;;;;;,$>>>>$$>>>,,;;&$&&&&$$                                         ",
"                                   $&&&$&&$;,;$,>>>>>>>>>$$;;;;;$$>>>>>>>>>,,,,&$&&&&$$                                         ",
"                                   $&&&$&&$;;;,,>>>>>>>>$$;;;;;;;$$>>>>>>>,,,;;&$&&&&&$$                                        ",
"                                   $&&&$&&$;;;,,>>>$$,$$$;;;;;>;;;$$$$$$$$,,,,,&$&&&&&$$                                        ",
"                                   $&&&$&&$;;;,;$$,,$$$$;;;;;>;;;;$$$,,,,,,$;;,&$&&&&&$&$                                       ",
"                                    $&&$&&$;;;,;;$$,$$$;;;;;;>;;;;;;$,,$$;;,;;;&$&&&&&$&$                                       ",
"                                    $&&$&&&$;;;;;;;;;;;;;;;;;;;;;;;;;;;;;;;,;;&$&&&&&&$&&$                                      ",
"                                    $&&&$&&$;;;;;;;;;;;;;;;;;;;;;;;;;;;;;;;;;;&$&&&&&&&$&$                                      ",
"                                    $&&&$&&&$;;;;;;;;;;;;;;;;>;;;;;;;->-->---;&$&&&&&&&$&&$                                     ",
"                                    $&&&$&&&&$;-->-->--;;;;;;>;;-;;;----------;$&&&&&&&$&&$                                     ",
"                                    $&&&&$&&&&$--------;;;$------$;;;--------;;$&&&&&&&$&&&$                                    ",
"                                    $&&&&&$&&&$------;;;;;;$$$$$$;;;;;;;;;;;;;$&&&&&&&&$&&&$                                    ",
"                                    $&&&&&$&&&&$;;;;;;;;;;;;;;;;;;;;;;;;;;;;;&$&&&&&&&&$&&&&$                                   ",
"                                    $&&&&&$&&&&$;;;;;;;;;;;;;>;;;;;;;;;;;;;;;$&&&&&&&&&$&&&&$                                   ",
"                                   $&&&&&&&$&&&$$;;;;;;;;;;;;--;;;;;;;;;;;;;&$&&&&&&&&$&&&&&$                                   ",
"                                   $&&&&&&&$&&&&$;;;;;;;;;;$$$$$;$;;;;;;;;;&$&&&&&&&&&$&&&&&$                                   ",
"                                   $&&&&&&&$&&&%$;;;;;;;;;;;;;-;;;;;;;;;;;;&$&&&&&&&&&$&&&&&$                                   ",
"                                  $&&&&&&&&$&&&%$&&&;;;;;;;;;;;;;;;;;;;;;$&$&&&&&&&&&&$&&&&&$                                   ",
"                                  $&%%:&&&&$&&&%$&&&$;;;;;;;;;;;;;;;;;$$$&$&&&&&&&&&&$&&&&&&$                                   ",
"                                  $%%%:&:&&$&&%%$&&&&$$$$;;;;;;;;;;$$$$$&$$&&&&&:&&::$&&&:&$$                                   ",
"                                  %%%%:&:&::&&:$&&&&$@@@@$$$$$$$$$$@@@@$&$&&&:&&:%&:$::&&&&$                                    ",
"                                 $%%%&:&:&:&&%:$&&&&$=+@@@@@@@@@@@@@@@@$&$%&&:&::&:$&::&&&&$                                    ",
"                                 $%%%%:&:&:&%%$&&&&$==+@@@@@@@@@@@@@@@+@$%%&&:::::$$&&&&&&$                                     ",
"                                 $%%%&:&::&&%%$&&&&$=@+@@@@@@@@@@@@@@@+@$$%&&&&%%$&&&&&&&&$                                     ",
"                                 $%%&&::&$&&%&$&&&&==@+@**@@@@@@@@@@@@+@$=$&&&%%&$&&&&&&&$                                      ",
"                                 $%%&&:&&$&&%$&&&$===+@@@@@@@@@@@@@@@@@+==$&&%%$$&&&&&&&&$                                      ",
"                                 $%%&&&&$&&&%$&$====@+@@@@@@@@@@@@@@@@@+===$%%$&&&&&&&%&&$                                      ",
"                                $&%%&&&&$&&&%$&$====@+@@@@@@@@@@@@@@@@@+===$$$$&&&&&&&%&$                                       ",
"                                $%%%&&&&$&&%&$&$====+@@@*@@@@@@@@@@@@@@@+==,,$&&&&&&&%%$$                                       ",
"                                $%%%&&&&$&%%$&$====++@@@*@@@@@@@@@@@@@@@+=,,,$&&&&&&%%%$                                        ",
"                                $%%%&&&&$&%%$$=====++@@@*@@@@@@@@@@@@@@@+@===$&&&&&%%%%$                                        ",
"                                 %%%&&&&&$%%$=====+@+@@**@@@@@@@@@@@@@@@+@@===$&&&&%%%$                                         ",
"                                 $%%%&&&&&$$,,,==$@@@++**@@@@@@@@@@@@@@@++$====$&&%%&%$                                         ",
"                                  $%%&&&&&$$,,,,,$@+@@+**@@@@@@@@@@@@@@++@$====$$%%%%&$                                         ",
"                                  $%%%&&&&&$====$@++@@***@@@@@@@@@@@@@@+@@$=====$%%%%$                                          ",
"                                   $%%%&&&$=====$@+@@@*@*@@@@@@@@@@@@@@@@@$=====$%%%$$                                          ",
"                                    $%%%&$======$@+@@@**@@@@@@@@@@@@@@@@@@@$==,,$&%$$                                           ",
"                                    $$%%&$,=====$@+@@@**@@@@@@@@@@@@@@@@@@@$,,,==$$$                                            ",
"                                     $$$&$,,,===$++@@@**@@@@@@@@@@@@@@@@@@@$,,===$                                              ",
"                                       $$===,,,$@+@@@@*@@@@@@@@@@@@@@@@@@@@$=====$                                              ",
"                                       $=====,,$++@@@@*@@@@@@@@@@@@@@@@@@@@$=====$$                                             ",
"                                       $=======$+@@@@@@@@@@@@@@@@@@@@@@@@@+@$===,,$                                             ",
"                                      $$,,,===$@+@@@@@@@@@@@@@@@@@@@@@@@@@+@$=,,,=$                                             ",
"                                      $=,,,,,,$+@@@@@@@@@@@@@@@@@@@@@@@@@@+@$,,,==$                                             ",
"                                      $===,,,,$+@@@@@@@@@@@@@@@@@@@@@@@@@@+@$,,===$                                             ",
"                                      $======,$+@@@@@@@@@@@@@@@@@@@@@@@@@@+@$,===$                                              ",
"                                      $=======$+@@@@@@@@@@@@@@@@@@@@@@@@@@+@$===$$$                                             ",
"                                      $$======$+@@@*@@@@@@@@@@@@@@@@@@@@@@+@$==$;;$                                             ",
"                                      $;$$====$@@@@*@@@@@@@@@@@@@@@@@@@@@@+@$=$$;;$$                                            ",
"                                      $;;;$$==$@@@@*@@@@@@@@@@@@@@@@@@@@@@+@$$;;;;;$                                            ",
"                                      $;;;;;$$$$$@@@@@@@@@@@@@@@@@@@@@@@@@@$$;;;;;;$                                            ",
"                                      $;;;;;;;$.$$$@@@@@@@@@@@@@@@@@@@@@@@$$$;;;;;$$                                            ",
"                                      $;;;;;;;$....$$$$$$@@@@@@@@@@@$$$$$$..$;;;;$$                                             ",
"                                      $;;;;;;;$..........$$$$$$$$$$$$.......$;;$$                                               ",
"                                       $$$$$$$$.............................$$$                                                 ",
"                                              $.............................$                                                   ",
"                                              $.............................$                                                   ",
"                                              $....X........................$                                                   ",
"                                              $....X........$......X........$                                                   ",
"                                              $....X........$.....X.........$                                                   ",
"                                              $....X........$.....X.........$                                                   ",
"                                              $....X........$.....XX.......$                                                    ",
"                                              $....X........$.....XX.......$                                                    ",
"                                              $....X........$..............$                                                    ",
"                                              $....X........$..............$                                                    ",
"                                              $.............$..............$                                                    ",
"                                              $.............$..............$                                                    ",
"                                               $.............$.............$                                                    ",
"                                               $.....X.......$.............$                                                    ",
"                                               $.............$......X......$                                                    ",
"                                                $............$.............$                                                    ",
"                                                $............$.............$                                                    ",
"                                                $............$............$                                                     ",
"                                                $............$............$                                                     ",
"                                                $............$............$                                                     ",
"                                                 $...........$............$                                                     ",
"                                                 $...........$...........$                                                      ",
"                                                 $...........$..........$$                                                      ",
"                                                 $...........$..........$                                                       ",
"                                                  $$.........$..........$                                                       ",
"                                                   $$$$$....$$..........$                                                       ",
"                                                 $$$ooo$$.$.$..$$$$$$$$$$$                                                      ",
"                                             $$$$$ooooOO$$$$$$ooOOOOOOOOO$                                                      ",
"                                            $$oooooOOOOOOOO$$ooOOOOOOOOOOO$                                                     ",
"                                            $ooOOOOOOOOOOOO$$ooooOOOOOOOOO$                                                     ",
"                                            $oo$$$$$$OOOOOO$$oooo$$$OOOOOOO$                                                    ",
"                                            $$$$$$$$$$OOOOO$$ooo$$$$$OOOOOO$                                                    ",
"                                             $$$$$$$$$$$$O$$$$$$$$$$$$$$$$$$                                                    ",
"                                               $$$$$$$$$$$$ $$$$$$$$$$$$$$$                                                     ",
"                                                              $$$$$$$$$$$                                                       ",
"                                                                                                                                "
};
