/* XPM */
static char *result[] = {
/* columns rows colors chars-per-pixel */
"128 128 5 1 ",
"  c #030405",
". c #040807",
"X c #040608",
"o c #040809",
"O c #080B0C",
/* pixels */
".XX. XXX ..XX XoOXXOXXXXXoXXOO  oooXXoOXXX.oo.XXoXooooXXooo..o.X.XoXo.XXoXooo.XXooX.XXX.XXoXXX.XX XX  ..XXX. . XXX  XXX  XXX  XX",
".XXXXXXXXX.XXX..XXXXXX.XXX.XXXXXooXo.oooXXoooXXXo.ooooXoooo.XOoo.XoXX oXoXooo.X.XX.XXXX.XXoXX.OX XO.XX.. .. X XXXXX ...XXXX  XXX",
".XXX.XXXXX.. XX.XX OX.X.oo..XoXXoo.o XooXoooX..oX..oo.XXooX.Xoo..oooo.oXoXXoX.XXoo..Xoo.XXo.XXoXXXXX....X...XX.XXXX X O  XX  X X",
".XoXoooX.ooXO .o..X.ooXoooXXOoXXoooOXooo.OooooooOoXooOooooo.XOooooooooOOooooooXXoX.ooooXoooXXOoXXXXOXoooX...XXXXoXX ..XXXXOXXXXX",
"XXX ..XXXOXX.Xoo.oXoooXoooXXoooooooo.ooo.oooooooo.ooooooooooooooXooooXooo.ooooXoooXooXXXooooooXooXooX..X.X .OXXXXXX XXX  XXX  .X",
"XX....X. X OXXX.oX XXX .oXXXXXoXXooo.oooXXXoo.Xoo.ooooXoXooX.ooo.XooX.ooo..XXXXoooXooXX.XooX.XXXXXooX..XXXXX XXXOXX XX   XXXX . ",
".XX..XX.XXXXXXX.XXXXXXX.XXX  OXXooXX XXX.XXoo..XX..XXo..XXXX.oXX XoXX..XXXXXXX.XXX.XXXX XoXXXXX XXXXX..XX  XX X XXX XXX XX    . ",
"XoXXXXXXXXO.XXXOooXOOXXXoOXXOooXooooXXoOXX.oo.XooXoOoXXXooooooooXoOooXXoo.oXOooooXXoooX.ooooOX.OXXXXXXXOXXXXOXXXXXX .oXXXXX OX O",
"XXX...XX.XXXXXXOX.XX.XXXoXXXXooXooooX.ooXooooXXooXooOoXXoooXooooX.XOXXoOoXoOXXXoooXoXoXXXXX.XooXXX..X. O.XXXX X.XXX  OXXXX X  XX",
"XoX..XXX..XXXXX.X. X.XXXoooXoooXo.ooXooo.XoooXXoo.ooooXoXoooooooX.O.XXoooX.XoXooooXooo..oXoXXXoXXXo.. ...XX OX  XXX X XX X OXXO ",
"XX. ..XXXXXXXXX.X  X.. .XXX XXXXOXXX.XXX X.XX..XX X.XX.XXXX.Xo.X XX XXXXXX.XXXXOXX...X..XXX.XXXXXXXX    XX .X   XX  O X  X      ",
".XX XXoXXooXXXX.X..X....OXXXX.XXoooo XooXXooXXooo.oXooXXooX.ooooX..OXXoXOX.oXXXXXX.XXXXXoXOXXXoXXX..OXXXXXXXXXXXXXX X X XXXX   O",
".oXXXXXXXX..XOX.OOX..ooXXOoXooo.ooooXoOoX.o.oXooOXOXoXXXooo.oOooXO..XXOOO.oo.X.oooooOXX.oooXooOX.XoooX.OXXXX.XXXOX.XXXXOXXXXXXXX",
"XXXXoXXXXX.. XXX .Xo..o.o.XXoooXooooXooooooooXooooooOooXooo.XOooXO..XX...XooOXOXooXoXXX.ooOXoXXX.Xo..XXXXXXX.XXXXXX X X  XOXX  O",
"XXX XXo.XOX.XXXO OXOXXXXoXXXXXoXXooXXoXoXXooXXXooXXXooXXoooXoooXX.oOXX.X.XXXOXXXXXXXooXXXXo.XXoXXXXoXXXOX.X..XX XXXX OOXXXXX X .",
".X. . X.   X X X       XXX  XXX XXX  X.X .X. ..Xo.. XX. .X  XXXX  XXX XXXXX X  XX   .X .XXX  XX X X X  X   .X   X   X         X ",
"XoX oXXXXoXXXXXoXX OooooooXXXooXoooO.ooooooooXooOoooOooooooXoOooXOoooXoooXooo.XoOX.XXoo.XXOXXooXXXXXXoo..XXXXXX.XXXX.X..XXXXXXXX",
"XoX .XXXXoXXXXXoXOXXXoX XoXXoooXoooo.oooooooXXXoo oooooXoo.Xoooo XoXoXooXXoooXXXoX.XXXX.XXoXOXXXXXoXXXXoXXXXXXX XX  X.XXXXXX XXX",
"XXX ..XXXXOXXXXXXXXXXX.XooXXoooXXooo.XXoXoooXXooXXXoooXoooXXXooX..OXXXooXX..oXXXoo.XXXoXoOoXXXoXXXoX..X...XXXXXXX..XXX. .XXX  X.",
".XXX  .. XXX  .oXX XX  Xo  XXXX XX.X  XXXoooX .XXXXXXX .....XoXXX ..X ....XXo.. XX  X . XXX.XXX. X . ...   XX   X   .          .",
".XX..XXXXX..XXX.XXXo.. XXX XXXo ooooXXooXXooo.XoXXXooo..XoXoXooX.ooXo.XX. .X..XX.X.oXoX..XoXXXXXXXXX.. XXX.XXXX.XXX O .  X X XXX",
" XX.XXoXXX..XXXoXXXOXX.ooXXXXooXXOXoXoXoXoooXXXooXoooo.XXoXXXXoXXoooo.oXO O.O. XXX.XooX.oooXoooXXXooXXXXXX.XXX. .XX X.X  X X  X ",
"XXX.X.XXX.oXXXXoXX XXXXoOXoXoooXooXXXXOoXXXooXoooXXXooXoooooXOooXooooXOoXXXOXXXOXoXXoXXXoooXXXoXXXooXXXXXXXXXXXXXXXXX.XXXXXXXXXX",
"..X. XXXXXXX .XX.XXXXXXXXXX oXXXoXXX XXo.XXoXXXooXXooX.XXXX.Xo.XXXXXXXoXOXXXXXXXXXXXXXXXXXoXXXXXXXXX.XXX.  XXXX .XX  .. XXXX  XX",
" X   XXX X    .. X oXX .XX. XXXXX..X .Xo.XXoX.XXo..XX....X. XXXXXXXXX XXXXXX  XXXX XXXX X.X ..X X XoX. XX   X  .XX   XX  X . XXX",
"XX   XXX .XXXXXoXXXoX  XoXXXXXX XXXX .Xo.XXo ..oX.oXoXX .o. XooX XXXXXXXX XXO .XXX XoXX .XX XXX X XXXX XX XXXXX X X XX X XXX  X ",
"XXX.XXXXXXXXX XXXXXXXX XoXoXXXXXoooo ooo XoXXXoo.XXXoXX.ooXXXooXXXXXoXoooo.. XXXoX.XXXX oXXXXXX.XXXXXXXo.XXXX XXXXX XXXX XXX XX ",
"XXX.oXX XooX...XXXXOXX.XoXoXOoXXoooo oooXXoXOXXooXooooX..oXXXoOoX.O.oXoo.oo.O OOoX.XooXXoooXoXX.XXoXXXXo. X.XXX.XXXXXXXXXXXXXXXX",
"XXX XXXX  X   .XXX XXXX.XX. XXX.XXXX.XXXX.XX.  X.XX.XX.... ..X.XXXO X XXXX.XXX XXX .XXX XX..  X. XXX. XXX  XXXXX  X XXXXXXXX  XX",
"XXXXXXXX.XXX.X.oXX OoXXXXXXXXXX XooX Xoo.XXXX.XooXXXooXXXoXXXoXXXXooO .oXX.XOXXXoXXoXXX.oXoXXXoXXXoo XXX  XXX  XXXX XX   X X XX ",
" XX X XXXXXX X.X.XXXXXXXXX..XXX.ooXX XXo.oooo.X.XXXXoXXXXX.XXoo. X.XX XX.XXXXXXXXXXXXXXXXXXXXooXX oXXX o XXXXX  XX  X XX X    XX",
"XXX XXXXXoXXXXXX.XXoXXXoooXXXXXXooooXooX.XoooXXoo.ooOXXXooXXXooXX.oXXXoooXooXXXXooXooXOXooOXXXoXXXoX XXoXXXXX XXXXX X XX XXXX X ",
"XX  XXXXXXXXXXXXXX.XXXXXXXX XXX XXXX XXX XXXXXXXX..XXXXXXXX..X.X XXXX .X.XXXXX. XXXXOXXXX.X XXXXX XX   o     X XXXX XXXX XXX  XX",
" X    X   X            X.    XX XX.X .XX XXoX  XXX  X.   X  XXX  XXXX XXX ..X  XXX  X X  .X  X    XX XXXX XXX   X    XX         ",
"XXX XXX   XX XXX. .XX. XXXX X.X XX.  XoX  XXX .XXXX.X.. XX XXX.. XXXX..X  .XX .XXX  X   . X..XX.XX XX XX    X    XX    X XX  XXX",
" XXX XXX XXXX XoXX XXX XoXX XXX oOXXXooXXXXoXXXXoXXooX.XooXXXoXoXXXXX oXXXXo.XXXXXXXXXXXXXX .XXXX XXXXXXXXXXXXXXXXX X.X  X X  XX",
"XX X XXoXXXXX XoXXXoXXXXooXXXXOXXXX. XXXXXXXXXXXXXXXX.XXXXXXXOXXXXXXO O.XXO XXXXXoXXOXXXXXXXXXXX XXXXXXXX XXX XXXXX X  X       X",
"X X XXX   X X  XX XXXX .XoX XXX XX..XXXX ..XX.XXX XXo.X .X X.XXXXXXXX  X XXXX XXXX XXXX X.XX  XXXXX    X X XXX  XXX XX   XX   X ",
"XXX  XXX XX  XXX X.X.. XXXXXXXX X.XX XXXXXXXX XXX XXX.XX.. X.oXXXXoX  XXX  X. XX.. XXXX XXX X.XX XXX XXX   XX  X XX  XX  X X  XX",
" XX X X X .X XXX.X XX .XXXX .X. XX.X XXX XXXX .....XXXXX..X  XXX XXXXXXXX XX..XXX   X ..XXX  .XX  XX X XX X XXX X   X     X X X ",
" XXXXXXXXXXXXXXoXXXXXoXXXoXXoXXXoooXXoXoXX.ooX.ooXooooXXooXXoooXXooXoXooXXoOoXXXo.XXXXXXXXXXXXXXX.XXXXXXXXX XXXXXXXXXXX XX oXXXX",
"XXXXXXXX.XXXXXXXXX.X.X XXX.XXXXXoXXXXXXXXXXX.XX.X XXooXXXXXXXoX XXX X.ooX XXXXXXXX .XXXXXXXXX.X XXXXX  XXX XXXXXX     X   XXX X ",
"     X    X   .XX .X XXXXXX .XXXXo.X...X XXX.XXXX.XXoXXXX.. Xo.. XX.X XX XXXX XXoX. X X XX.. XXXX XX X XX  XX   XXX X X   X X  X",
"  X X X   X    .   X    .X  .  X..    .X X XX  XX   XX  ..  .XX.  XX  X.X X X.  .X .XXX  XX   X X  XX  X    X X X    XX      X  ",
"X.  XXXXXXX   XX X XXX XXXX.XXXXXX.X XXXXXXX .XXXXX X.XXXX. XXXoXXoXX.XXoXXXXXXXXX XXXXXXXo XXXX  XXXX XXXXX XX XXX  XX  XX   X ",
".. X XXXXXoXXXXX.X X XXX.X..XXX X...  XoXXX X.X X...X..X..XXXXXXXXXXX.XXX XXXXXXXo  XXX XXX XXX XXXX XXXX  XX X X X X X  XXX XXX",
" XX XXX   X    o X XXX XXX XXXX XX.. XXX  XXXXXXXXX .X  .XX  oXX XX  .XXX X ..  XX XXX   XX X X   oX  XX   XX XXX X XX X X X X  ",
" XX X  X  o   XX.X XX  X  X  XXX X   XXo  XXX  XX .XX   .X XXXX XXX X XXX  .X  .XX XXXX XXX X X   XXXX  X  XX XXX X X XX  XX    ",
" X    X  XXX.  XXX X.  XX X X XX X..  XX  XXX.. X.. XX   XX XXX. XX X  XX XXXX XXX X XX XXX   X   XX X XX   X X X X  XX   X     ",
"XXXXXXXX XXX.X XXXXOXX .XXX XOXXXXX.XXXXXXXXXXXXXXXXXoXXXXXXXOXXXXXXXXXXXXoXXXXXXXXXoXo oXo OXXXXXXXXXXXX XXXX XXXX XXXX XXX XX ",
" X XXXXX XX  X XXX XXXX.XXXXXXX XX.X XXXXXXo.X XXX XXXXXXX XXXXXXXXXX XXX  XX XXXX XXXXXX XXX XXX XXX XXX  XX X X X  XX XXXX    ",
" X    XXX X    O.  XX X  XXXXXX XX.XXXXX XXX .XXX.XXXX.. OX XXXX.XXXXXX X.oXX.XXXX XX X XXX X XX  XX X X XX    XX X XX   XX    X",
"X     X       X    X              .X  X  X X   .X   X  X     X X  .   X.  X X      XXX  XXX X     XX  XXX       X      X        ",
"X X XXX   X.XXXXXX XXX XXXX XXX X.    XX  XXX  XXXXXX. X O X  XX  X.  XX  XXX.XXXXX Xoo X X XXXXX XXX  XX XXX  XX   XXX  X XX X ",
"   X XX  XXX X O X XXXXXXXX XXXXXXXX XXXXXX XX XX XXXXX XXXXXXXXXXXXXXXXX X X XXoXXXXXX XoX   X XXXXXX X X   XXXXXX XX   X X X  ",
"XXXXXXX  XXX   X  XXX   XX XX X XXXX XXX XXXXX.XX .XXX XX  X XXXXXXXX X X XXXX XX  XXX  X X XX   XXX  XXXX XX   X X  XX  XX   X ",
"  X X X   X    X   X X X  X XX  X XX  XX XX   XXX     X .X   X X XXX  X X XXX  XX  .    X X    XX XX   X X  XX XX    X      X   ",
" X   XX X X  X XXX X    XX X   X X    XX   X.   X   .    . . XX   XX  XX X  X XX    XXX   X X X   XX              X X         X ",
"XXX  XXX XX X XX   oX X XXXXXXXXXXXX XXOXXXXXX.XXXXXXXXXXX XX XXXX. X  XXXXXX XXXX  XXXXXXXXXXXX XXXXXXXX XXXX XXXX X X. X X X X",
"X X  XX  XX X  XXX oX XXXXXXXXXXXXXX  XXXXXXX  XX XXXXXXXXX XXXX X.XX .XX XXX XXXX X XXX XXX X X  XX  XXX   XXX XXX  X   XX   X ",
" X XXXXXXX X X XXXXXXXX XX  X XXXXXX XXXXXXXX  XXXXXXX XXX XXXXX X XX XXX XXXXXXXX  XXX XXXXXXX   XXXX XX  X XX  XX  X          ",
"  X            X         X                XX    X    X                                X           X        XX       X           ",
" X XXXXXXXXXXX X X XXXXXXXXXoXXX  XX X XXXXXX XXXXXXXXXXX X XXXXX XXX XXX XXXX XXX XXXXXX XXXXXXX XX X XX X X  XX               ",
" X   XX    X   X   XXX XXXX X X  XXX  XX  XX X XXX XX X XXXX XXX X XX XX  X XX XX  XXX  X XXX X X XX   X X        X  .X       . ",
"XXX  X   XX      X X X  XXXX XXX  XXXXXXXXX X  Xo XXXXXXXX XXXX XXO . XXX X XX XXX XX X XXXX XXX  XX  X  X XX   X X X XX        ",
" X    X   X X  X    X   X     X   .X       X   XX       X    X X  X     X  .X   XX XX     X  XX        XX        X              ",
"     XX   X   XX  XX    X   XX     X   X X XX           X  XXX   X     .  X         X   X X                     X    X          ",
"     XX   X X  X X X X  XX X XX  X     XX XXX  XX  XXoX  X  XX    XX. XXX X XXXX XX XX  X XX  X   X      X X   XX     X         ",
" X   XX XXX   XX   OXX XX X XXX XX o  XX XXX X XX XXX  XXX XXXX X XXX XXX X XX X  X  XX  X  XXX  XXX  XX  X X   X X X           ",
"X X XX   XX X X  X XXX  XXX XX X XXo XXX X X   XX XXXXXXXXXXXXXXX XXX X X XXX  XX X X X X    XX   XX  XX   XX X XX  XX          ",
"         X  X                      X  X  X     XX   X                       X  X    X                                           ",
"          X   X    X    XX X  X  X X X  X XXX    X  XX         XX X  X    X XX  X X XXX XX    X XX                    X         ",
"      X   XX   oX  XXX  X    X X   X X XXXXX   XX X    XXX  XX X   XX XX  XXX  X X  X X      XX  X X   XXX  X                   ",
"    X .  X   X  XX XX XXX  XXXX XX X   XXX XXXXXX XXXX X X XX X  XXX  X X XXX   X  XX    X   XX   XX  X                         ",
"              XX   X          X X XX   X   X  X X  X X   XX X XXXX    X   XXX  X  X   X                         X               ",
"X X   X   .      X XX  X   X XX X    X  XXX X  XX   XX   X  X XXX XX    X X X  X X  XXX X   XX     X XX  X      X               ",
"                    X    X      X  X    X X  X  X  XX  X X  XX X  X   XXX      X X   XX      X      X                           ",
"            X XX   XXXX     X X  XXXXX XXXXXX XXX XX X XXXX  XXXXX XX XXXXXXX    X  X   XXX  XXX   X     XX                     ",
"          X    X   X     X   X        X X  XX   X X          X        X   X X    X  XXX             X    X                      ",
"               X    X                 X                  XX        X                                                            ",
"                                   X       XX            X       X X  X X                                                       ",
"                                X                    X    X  XX      XX   X                                                     ",
"             X     X X XX   X    XXX . .XXXXX XXX   XO     X X   XXX  XXX XX X . X   .   X    XX                                ",
"                       X           X           XX         X  X    XXX X        .  X                                             ",
"                        X                                         X   X                                                         ",
"                                 XX                          X        X                                                         ",
"          X              .       XX                     XX   X X            .                                                   ",
"                                            X   X        XX  XX        X.                                                       ",
"                                  X     X                X       X    X                                                         ",
"                                                                X                                                               ",
"                                           X               XXX  X X   XX                                                        ",
"               X                X                                 X                                                             ",
"                                                                 X  XX  X                                                       ",
"                                               X                    X                                                           ",
"                                                                                                                                ",
"                                                         X         X                                                            ",
"                                                                                                                                ",
"                                                                                                                                ",
"                                                                                                                                ",
"                                                                                                                                ",
"                                                                                                                                ",
"                                                                                                                                ",
"                                                                                                                                ",
"                                                                                                                                ",
"                                                                                                                                ",
"                                                                                                                                ",
"                                                                                                                                ",
"                                                                                                                                ",
"                                                                                                                                ",
"                                                                                                                                ",
"                                                                                                                                ",
"                                                                                                                                ",
"                                                                                                                                ",
"                                                                                                                                ",
"                                                                                                                                ",
"                                                                                                                                ",
"                                                                                                                                ",
"                                                                                                                                ",
"                                                                                                                                ",
"                                                                                                                                ",
"                                                                                                                                ",
"                                                                                                                                ",
"                                                                                                                                ",
"                                                                                                                                ",
"                                                                                                                                ",
"                                                                                                                                ",
"                                                                                                                                ",
"                                                                                                                                "
};
